<?xml version="1.0" encoding="utf-8"?>
<!-- Generator: Adobe Illustrator 21.0.2, SVG Export Plug-In . SVG Version: 6.00 Build 0)  -->
<svg version="1.1" id="Layer_1" xmlns="http://www.w3.org/2000/svg" xmlns:xlink="http://www.w3.org/1999/xlink" x="0px" y="0px"
	 viewBox="0 0 800 800" style="enable-background:new 0 0 800 800;" xml:space="preserve">
<title>retweet</title>
<path d="M700.9,475h98.6L648.9,647.3L501.4,475h98.3V275.7H362.3l-99.7-99.6h232.8C504.7,76.8,569.1,0,647.2,0
	C731.5,0,800,89.9,800,200.8c0,86.1-41.2,159.5-99.1,188.1V475z"/>
<path d="M98.7,579.3V351.5H0l150.8-172.3l147.7,172.3H200v199.3h0.3c0,0,0,0,0,0c0.5,0.5,7.9,8.4,18.8,18.9
	c23,22.3,61.3,56.2,81.4,56.2c20.1,0,58.4-33.9,81.4-56.2c10.9-10.5,18.3-18.4,18.8-18.9c0,0,0,0,0,0s0.1,0,0.2,0
	c2.3,0.4,21.1,4.1,45,10.5c0.9,0.3,1.9,0.5,2.9,0.8c34,9.1,77,23.3,98,40.8c44.3,36.8,55.3,197,55.3,197H0c0,0,16.6-165.8,54.2-197
	C64.8,594.2,81,586.2,98.7,579.3z"/>
</svg>
